Coordinates
version=1
nRows=10
nColumns=40
inDegrees=yes

Units are S.I. units (second, meters, Newtons, ...)
Angles are in degrees.

endheader
time	pelvis_tilt	pelvis_list	pelvis_rotation	pelvis_tx	pelvis_ty	pelvis_tz	hip_flexion_r	hip_adduction_r	hip_rotation_r	knee_angle_r	knee_angle_r_beta	ankle_angle_r	subtalar_angle_r	mtp_angle_r	hip_flexion_l	hip_adduction_l	hip_rotation_l	knee_angle_l	knee_angle_l_beta	ankle_angle_l	subtalar_angle_l	mtp_angle_l	lumbar_extension	lumbar_bending	lumbar_rotation	arm_flex_r	arm_add_r	arm_rot_r	elbow_flex_r	pro_sup_r	wrist_flex_r	wrist_dev_r	arm_flex_l	arm_add_l	arm_rot_l	elbow_flex_l	pro_sup_l	wrist_flex_l	wrist_dev_l
     43.42000000	     -4.91037968	     -4.80669675	     -2.42324723	      0.81503901	      0.93168807	      0.43459844	     31.06969198	     -5.01999728	    -10.71120975	     42.17187874	     42.17187874	      8.04231698	    -14.10814149	      3.11191437	     15.18218072	     -6.10951081	    -11.98374218	     21.62139191	     21.62139191	     14.89755590	     -2.72284814	     -4.07145407	    -10.28905273	      0.79826442	     -0.99984465	     -8.53825171	    -15.35016594	      2.17427096	     39.52141506	     45.63962659	      0.00000000	      0.00000000	      9.23833523	    -14.81836846	     -9.65973234	     36.63719513	     45.45660788	      0.00000000	      0.00000000
     43.43221429	     -4.93691016	     -4.91791727	     -2.53339412	      0.81367494	      0.93174092	      0.43481583	     31.30456557	     -4.72604226	    -10.81570961	     39.44592305	     39.44592305	      7.78651042	    -12.52862874	      2.92593007	     14.73841718	     -6.22911378	    -12.05209312	     21.46426811	     21.46426811	     15.14462704	     -2.65587251	     -4.18574726	    -10.31938990	      0.83420244	     -1.08074534	     -9.44180693	    -15.53400172	      2.07149582	     38.51949665	     45.67879441	      0.00000000	      0.00000000	      9.58038006	    -14.92537973	     -9.75440406	     36.71805558	     45.48754822	      0.00000000	      0.00000000
     43.44442857	     -5.11498219	     -4.84999104	     -2.70942213	      0.81219809	      0.93144363	      0.43511113	     31.69180167	     -4.49317751	    -10.62375705	     36.66676536	     36.66676536	      7.36437999	    -11.17078870	      3.11459493	     14.48833571	     -6.18249972	    -12.23616709	     21.34880860	     21.34880860	     15.35619296	     -2.60917782	     -4.29623379	    -10.13205385	      0.63064006	     -1.32968648	    -10.33148701	    -15.68588732	      2.00660407	     37.86181627	     45.70227541	      0.00000000	      0.00000000	      9.77494882	    -15.17385191	     -9.81637621	     36.80750206	     45.50311755	      0.00000000	      0.00000000
     43.45664286	     -5.02183338	     -4.94501315	     -2.81079106	      0.81111663	      0.93163412	      0.43536593	     31.35467707	     -4.21081982	    -10.97516141	     33.29435910	     33.29435910	      5.96399406	     -9.43051475	      0.27364527	     13.80722039	     -6.30690608	    -12.56530978	     21.01653149	     21.01653149	     15.57194965	     -2.13522005	     -4.66326069	    -10.25681209	      0.61514791	     -1.30282718	    -10.00312593	    -15.18688388	      0.10637992	     33.39313489	     45.99483476	      0.00000000	      0.00000000	     10.43744851	    -15.07469436	    -10.01078530	     36.36904327	     45.61677896	      0.00000000	      0.00000000
     43.46885714	     -5.15118741	     -4.85244271	     -2.96143211	      0.80983308	      0.93129871	      0.43573856	     31.48490790	     -3.97195318	    -10.80881799	     30.44063841	     30.44063841	      5.41111842	     -7.90842530	      0.78037984	     13.49141611	     -6.22518739	    -12.74805067	     20.87186322	     20.87186322	     15.79281890	     -2.10005567	     -4.76417649	    -10.12653977	      0.39360554	     -1.47724432	    -10.83472800	    -15.38701203	     -0.00893126	     32.95136573	     46.01312433	      0.00000000	      0.00000000	     10.63000293	    -15.27751333	    -10.06732280	     36.54931050	     45.63219542	      0.00000000	      0.00000000
     43.48107143	     -5.00049339	     -4.95553877	     -3.04601225	      0.80887352	      0.93149037	      0.43606786	     31.08191001	     -3.67548212	    -11.19316933	     27.49776195	     27.49776195	      4.92752277	     -5.58610080	      1.32288399	     12.73113376	     -6.31589430	    -12.92182918	     20.49212896	     20.49212896	     16.03913741	     -1.83008087	     -4.91908255	    -10.35469158	      0.44451459	     -1.38847893	    -11.57943660	    -15.60967219	     -0.27180068	     32.09388698	     46.05890075	      0.00000000	      0.00000000	     11.00179809	    -15.19418284	    -10.08884215	     36.86191120	     45.65065175	      0.00000000	      0.00000000
     43.49328571	     -4.92460376	     -4.83049047	     -3.17697169	      0.80796110	      0.93143096	      0.43646772	     30.92181534	     -3.64148812	    -11.56093211	     25.05131527	     25.05131527	      4.62326241	     -2.99488351	      2.16614164	     12.04063577	     -6.18220997	    -13.25467308	     20.09900891	     20.09900891	     16.20178330	     -1.45904885	     -5.27298403	    -10.43502260	      0.21145577	     -1.27755902	    -12.00311817	    -15.60737901	     -0.95654527	     30.74035851	     46.15579594	      0.00000000	      0.00000000	     11.37593486	    -15.18912686	    -10.10714257	     37.10704424	     45.67940526	      0.00000000	      0.00000000
     43.50550000	     -4.93093727	     -4.81572061	     -3.27961821	      0.80699277	      0.93125773	      0.43704205	     30.83006952	     -3.37447845	    -11.60929436	     22.76775911	     22.76775911	      4.13001327	     -1.33251077	      3.04437577	     11.48428754	     -6.15585057	    -13.40147538	     19.76067485	     19.76067485	     16.38162403	     -1.35280847	     -5.44643488	    -10.43429281	      0.11472947	     -1.39641853	    -12.46285529	    -15.80076469	     -1.32002174	     30.11183020	     46.20242340	      0.00000000	      0.00000000	     11.58622851	    -15.24028746	    -10.12196750	     37.28816215	     45.69390371	      0.00000000	      0.00000000
     43.51771429	     -4.87386125	     -4.72458400	     -3.38294428	      0.80616605	      0.93118570	      0.43765209	     30.71570951	     -3.25260678	    -11.82089451	     20.86173942	     20.86173942	      3.85035446	      0.60326225	      4.01004457	     10.79345882	     -6.03335463	    -13.62138298	     19.30546302	     19.30546302	     16.52238917	     -1.14332694	     -5.68444216	    -10.51893956	     -0.05471027	     -1.38199172	    -12.81905191	    -15.95327170	     -1.75965117	     29.44332933	     46.25739007	      0.00000000	      0.00000000	     11.84043917	    -15.23882759	    -10.14291678	     37.54016237	     45.71138024	      0.00000000	      0.00000000
     43.52992857	     -4.85947282	     -4.61529191	     -3.47561524	      0.80535880	      0.93106954	      0.43828092	     30.85844546	     -3.24489288	    -12.15417387	     19.71054850	     19.71054850	      4.64331280	      2.73490851	      7.70419478	     10.05943225	     -5.83445604	    -13.67637589	     18.62684209	     18.62684209	     16.21884264	     -1.29560538	     -6.73678550	    -10.53694076	     -0.22463062	     -1.21098071	    -12.66758232	    -15.33781856	     -6.87987484	     27.62633113	     46.65173262	      0.00000000	      0.00000000	     12.18822944	    -15.10451533	    -10.18386194	     37.80218943	     45.87972542	      0.00000000	      0.00000000
